<?xml version="1.0" standalone="no"?>
<!DOCTYPE svg PUBLIC "-//W3C//DTD SVG 20010904//EN"
 "http://www.w3.org/TR/2001/REC-SVG-20010904/DTD/svg10.dtd">
<svg version="1.0" xmlns="http://www.w3.org/2000/svg"
 width="685.000000pt" height="685.000000pt" viewBox="0 0 685.000000 685.000000"
 preserveAspectRatio="xMidYMid meet">
<metadata>
Created by potrace 1.14, written by Peter Selinger 2001-2017
</metadata>
<g transform="translate(0.000000,685.000000) scale(0.100000,-0.100000)"
fill="#000000" stroke="none">
<path d="M3129 6655 c-3 -2 -25 -7 -50 -9 -24 -3 -73 -8 -109 -12 -36 -3 -69
-9 -73 -11 -5 -3 -27 -6 -51 -8 -23 -2 -63 -9 -89 -15 -26 -5 -64 -13 -85 -16
-20 -3 -41 -9 -47 -12 -5 -3 -21 -7 -35 -9 -83 -9 -446 -130 -600 -201 -19 -8
-37 -16 -40 -17 -22 -4 -240 -119 -240 -126 0 -5 -3 -8 -7 -7 -12 4 -73 -26
-73 -34 0 -5 -7 -8 -15 -8 -9 0 -18 -7 -21 -15 -4 -8 -9 -13 -13 -11 -16 10
-416 -276 -404 -288 4 -3 1 -6 -5 -6 -12 0 -31 -14 -86 -65 -18 -16 -61 -56
-96 -87 -34 -32 -59 -58 -55 -58 4 0 -5 -10 -21 -22 -16 -12 -31 -25 -34 -29
-3 -4 -30 -35 -61 -70 -95 -107 -109 -126 -101 -133 4 -4 2 -6 -4 -4 -12 3
-164 -194 -164 -212 0 -5 -4 -10 -8 -10 -12 0 -42 -56 -34 -65 4 -5 2 -5 -5
-1 -7 4 -14 -3 -19 -16 -4 -13 -10 -25 -14 -28 -8 -5 -90 -149 -90 -157 0 -3
-9 -18 -21 -34 -11 -16 -17 -33 -14 -39 3 -5 2 -10 -3 -10 -10 0 -68 -120 -64
-132 1 -5 -3 -8 -8 -8 -6 0 -10 -8 -10 -18 0 -10 -4 -22 -8 -27 -16 -18 -52
-117 -46 -126 3 -5 1 -9 -4 -9 -12 0 -99 -275 -117 -372 -3 -13 -9 -45 -15
-73 -6 -27 -12 -64 -14 -82 -3 -18 -7 -36 -9 -40 -3 -5 -8 -37 -12 -73 -3 -36
-8 -76 -10 -90 -32 -212 -24 -558 19 -800 3 -14 7 -42 10 -62 11 -75 48 -233
57 -244 5 -6 7 -13 4 -15 -10 -11 124 -404 143 -419 4 -3 8 -13 10 -22 5 -31
53 -128 63 -128 6 0 8 -4 4 -10 -3 -5 5 -26 18 -47 13 -21 36 -63 51 -93 36
-68 128 -214 158 -250 13 -14 24 -33 26 -41 2 -7 7 -16 10 -19 4 -3 20 -23 36
-45 16 -22 35 -47 43 -55 7 -8 42 -51 79 -95 106 -128 396 -415 419 -415 3 0
20 -14 37 -30 54 -52 348 -257 348 -243 0 4 4 3 8 -3 12 -17 110 -73 116 -67
3 4 6 2 6 -4 0 -12 241 -133 375 -188 75 -31 275 -100 390 -135 89 -26 322
-77 400 -86 17 -2 40 -6 51 -9 12 -3 50 -7 85 -11 35 -3 75 -7 89 -10 110 -19
427 -25 580 -11 47 4 108 9 135 12 28 2 64 7 80 9 17 3 53 8 80 12 28 3 59 8
70 10 11 2 45 8 75 14 91 15 112 21 130 30 10 5 19 7 22 5 3 -3 26 1 52 9 25
8 48 14 49 14 40 -3 539 176 556 200 3 4 13 8 21 10 27 5 200 94 200 103 0 5
3 8 8 7 12 -4 72 24 72 33 0 5 6 9 13 9 6 0 68 37 136 83 69 45 132 87 141 92
47 30 180 139 180 148 0 6 3 8 6 4 6 -6 32 15 147 123 94 87 227 224 227 233
0 3 15 21 33 39 53 57 92 108 89 119 -1 6 2 8 8 4 5 -3 10 -2 10 4 0 5 6 16
13 23 7 7 28 36 47 63 19 28 38 52 41 55 17 15 57 85 53 92 -3 4 -1 8 5 8 11
0 62 83 128 210 25 47 48 90 52 95 4 6 18 35 30 65 13 30 31 73 41 95 17 39
32 75 35 85 1 3 7 18 14 34 6 16 13 36 14 45 1 9 6 22 10 28 24 39 117 403
132 518 3 28 10 81 16 118 5 38 7 73 3 78 -3 5 0 9 6 9 15 0 7 567 -9 660 -6
36 -13 81 -16 100 -6 37 -15 88 -19 105 -2 6 -6 31 -11 58 -4 26 -11 50 -16
53 -5 3 -7 9 -4 13 6 11 -68 274 -95 336 -5 11 -29 70 -54 132 -25 61 -61 143
-81 182 -19 39 -35 74 -36 78 0 5 -6 15 -13 23 -6 8 -18 29 -26 45 -8 17 -23
40 -34 53 -11 12 -17 22 -13 22 5 0 -64 112 -90 146 -4 5 -12 17 -18 26 -47
73 -67 98 -76 98 -5 0 -8 4 -5 8 3 5 -12 27 -33 50 -21 23 -37 42 -34 42 3 0
-13 21 -35 48 -149 176 -390 410 -407 394 -5 -4 -6 -2 -2 4 3 5 -6 19 -20 30
-15 10 -32 25 -39 32 -7 6 -17 12 -22 12 -6 0 -12 4 -14 9 -4 12 -105 91 -117
91 -5 0 -11 4 -13 8 -4 11 -156 112 -168 112 -6 0 -10 4 -10 8 0 5 -15 16 -32
25 -18 9 -51 27 -73 40 -95 56 -215 118 -215 110 0 -4 -4 -2 -9 5 -4 7 -14 14
-22 16 -8 1 -27 9 -44 18 -81 43 -424 169 -496 183 -11 2 -23 6 -27 9 -5 3
-19 7 -33 10 -13 2 -44 9 -69 15 -57 15 -79 20 -110 26 -14 2 -36 7 -50 10
-39 7 -82 15 -120 20 -19 3 -44 7 -55 10 -11 2 -51 7 -90 10 -38 4 -88 11
-110 16 -41 9 -618 13 -626 4z"/>
</g>
</svg>
